<?xml version="1.0" standalone="no"?>
<!DOCTYPE svg PUBLIC "-//W3C//DTD SVG 20010904//EN"
 "http://www.w3.org/TR/2001/REC-SVG-20010904/DTD/svg10.dtd">
<svg version="1.0" xmlns="http://www.w3.org/2000/svg"
 width="649.000000pt" height="719.000000pt" viewBox="0 0 649.000000 719.000000"
 preserveAspectRatio="xMidYMid meet">

<g transform="translate(0.000000,719.000000) scale(0.100000,-0.100000)"
fill="#000000" stroke="none">
<path d="M2470 6934 c-101 -58 -267 -211 -354 -329 -156 -208 -238 -451 -238
-705 0 -206 36 -361 128 -545 68 -137 155 -254 272 -367 126 -121 225 -185
300 -192 171 -18 339 -67 577 -168 761 -325 1117 -687 1154 -1176 20 -268 -54
-511 -218 -715 -39 -48 -71 -91 -70 -95 0 -7 211 -164 227 -170 14 -4 91 79
143 157 94 140 178 341 210 506 21 103 18 388 -4 493 -58 273 -180 486 -406
712 -212 211 -459 371 -796 515 -150 64 -230 83 -390 91 -128 7 -141 9 -208
41 -283 136 -495 380 -577 664 -31 106 -38 306 -16 420 19 91 65 207 118 296
43 74 181 219 273 288 99 74 115 96 115 158 0 124 -124 187 -240 121z"/>
<path d="M3842 6940 c-51 -32 -74 -76 -69 -138 4 -61 15 -75 133 -167 198
-155 317 -332 371 -551 22 -92 22 -293 -1 -393 -63 -280 -255 -529 -538 -698
l-68 -40 140 -81 c77 -45 147 -82 155 -82 26 0 212 149 289 231 165 178 282
405 330 641 19 90 22 338 6 437 -24 148 -98 324 -197 474 -81 121 -279 306
-395 370 -44 23 -115 22 -156 -3z"/>
<path d="M2455 6148 c-24 -34 -46 -121 -48 -187 -1 -33 0 -61 3 -64 7 -6 509
-10 1154 -8 l519 1 -6 68 c-3 37 -16 99 -29 137 l-23 70 -777 3 -777 2 -16
-22z"/>
<path d="M1460 5983 c-152 -109 -251 -196 -396 -346 -406 -418 -665 -942 -775
-1567 -42 -241 -44 -666 -4 -909 65 -392 191 -742 396 -1098 l72 -124 -7 -294
c-3 -162 -3 -319 0 -349 l7 -56 927 0 c875 0 928 -1 934 -17 26 -70 169 -306
211 -350 78 -80 106 -86 438 -81 312 5 339 10 404 81 39 42 107 155 176 293
l36 71 467 6 c257 4 676 7 931 7 l463 0 0 351 0 352 59 96 c240 391 399 889
432 1353 13 184 -2 502 -31 673 -86 507 -284 960 -591 1355 -94 122 -296 329
-422 433 -102 85 -255 196 -271 197 -5 0 -5 -28 -1 -62 4 -35 10 -123 14 -195
l7 -133 155 -152 c218 -216 342 -374 478 -611 146 -252 258 -572 312 -891 30
-174 37 -523 15 -705 -62 -509 -252 -966 -559 -1346 -87 -109 -263 -283 -367
-364 l-84 -66 -1631 -3 -1632 -2 -69 49 c-303 215 -594 587 -757 971 -208 489
-267 1026 -172 1546 58 311 179 625 346 892 116 188 216 311 401 495 l178 178
0 100 c0 55 5 143 11 195 6 53 9 98 7 99 -2 2 -51 -30 -108 -72z"/>
<path d="M2512 5582 c-25 -17 86 -198 151 -246 28 -21 36 -21 589 -21 l560 0
43 48 c54 62 129 192 121 212 -5 13 -94 15 -728 15 -398 0 -729 -4 -736 -8z"/>
<path d="M2533 4524 c-119 -75 -174 -119 -265 -211 -205 -208 -338 -456 -383
-711 -20 -114 -20 -350 0 -464 45 -257 170 -490 375 -702 l106 -109 -136 -136
c-173 -172 -200 -211 -200 -285 0 -50 4 -60 36 -96 40 -44 80 -59 137 -52 32
4 48 16 114 91 181 203 292 291 513 405 l142 73 -115 57 c-64 32 -150 80 -193
108 -211 139 -391 380 -453 609 -45 164 -46 387 -1 547 21 74 92 227 132 286
82 118 206 242 319 318 l40 26 57 -23 c31 -13 81 -35 110 -48 46 -21 51 -27
36 -35 -28 -16 138 -24 436 -20 l265 3 -104 59 c-235 133 -572 275 -828 350
l-52 15 -88 -55z"/>
<path d="M1500 3969 c-78 -47 -490 -363 -487 -373 4 -13 305 -241 432 -327
l90 -62 7 39 c4 22 7 181 7 354 0 173 -3 332 -7 352 l-7 38 -35 -21z"/>
<path d="M4936 3632 c-7 -365 -4 -422 20 -422 8 0 69 42 136 93 68 51 179 135
248 187 157 118 147 108 128 122 -182 143 -504 378 -518 378 -4 0 -10 -161
-14 -358z"/>
<path d="M2529 3821 c-59 -61 -92 -113 -103 -168 -13 -59 -28 -57 694 -61 360
-1 718 1 795 5 l140 8 3 27 c4 37 -46 130 -107 196 l-48 52 -658 0 -659 0 -57
-59z"/>
<path d="M2440 3293 c-37 -25 -41 -34 -34 -83 8 -60 35 -119 69 -152 l28 -28
748 0 748 0 21 30 c27 38 60 130 60 168 0 18 -10 38 -28 55 l-28 27 -780 0
c-716 0 -782 -1 -804 -17z"/>
<path d="M2663 2752 c59 -61 178 -123 481 -249 512 -212 772 -380 1006 -650
77 -89 113 -109 176 -97 65 12 134 90 134 151 0 46 -53 124 -161 237 -180 189
-373 328 -644 466 -176 89 -335 151 -414 161 -36 5 -187 8 -335 9 l-270 0 27
-28z"/>
<path d="M3290 2183 c-62 -19 -315 -126 -404 -170 -97 -49 -216 -120 -216
-129 0 -2 255 -4 567 -4 l566 0 -19 21 c-29 33 -210 150 -325 212 -120 64
-148 76 -169 70z"/>
<path d="M475 868 c4 -84 11 -171 17 -193 19 -77 86 -189 151 -253 100 -99
142 -125 262 -161 l70 -21 2275 2 c2180 3 2277 4 2330 21 170 58 298 164 369
308 35 71 43 99 51 179 5 52 10 134 10 183 l0 87 -995 0 -995 0 -21 -42 c-12
-24 -44 -78 -70 -121 -27 -43 -49 -80 -49 -83 0 -2 412 -4 915 -4 784 0 915
-2 915 -14 0 -23 -62 -98 -109 -131 l-43 -30 -2307 -3 -2306 -2 -54 32 c-48
29 -121 113 -121 138 0 4 409 9 909 12 500 2 912 6 916 9 3 4 -25 58 -62 120
l-68 114 -998 3 -998 2 6 -152z"/>
</g>
</svg>
